<svg id="Laag_1" data-name="Laag 1" xmlns="http://www.w3.org/2000/svg" viewBox="0 0 513.5 304.05"><defs><style>.cls-1,.cls-2{fill:none;stroke:#575ee8;stroke-miterlimit:10;}.cls-1{stroke-width:1.5px;}</style></defs><path class="cls-1" d="M3.81,303.43c2.61-1.26,8.12-6.65,8.78-29.33,0,.64.08-3.2.08-3.2V35.44A30.66,30.66,0,0,1,43.32,4.78H485a30.66,30.66,0,0,1,30.65,30.66V276.68A30.65,30.65,0,0,1,485,307.33H43.32c-13.56,0-20-3.34-21-8.33,0,0-6.6,5.52-18.4,4.92A.26.26,0,0,1,3.81,303.43Z" transform="translate(-2.92 -4.03)"/><path class="cls-2" d="M12.67,270.9" transform="translate(-2.92 -4.03)"/></svg>